<?xml version="1.0" ?><!DOCTYPE svg  PUBLIC '-//W3C//DTD SVG 1.1//EN'  'http://www.w3.org/Graphics/SVG/1.1/DTD/svg11.dtd'><svg height="512px" style="enable-background:new 0 0 512 512;" version="1.1" viewBox="0 0 512 512" width="512px" xml:space="preserve" xmlns="http://www.w3.org/2000/svg" xmlns:xlink="http://www.w3.org/1999/xlink"><g id="_x32_2_x2C__My_Business"><g><polygon points="353.5,443.5 276,443.5 201,443.5 61,443.5 61,473.5 201,473.5 276,473.5 441,473.5     441,443.5   " style="fill:#9BC9FF;"/><path d="M61,443.5V296.95l0.05-0.15c3.11,1.101,6.46,1.7,9.95,1.7c16.57,0,30-13.43,30-30    c0,16.57,13.43,30,30,30c16.57,0,30-13.43,30-30c0,16.57,13.43,30,30,30c16.57,0,30-13.43,30-30c0,16.57,13.43,30,30,30    c16.57,0,30-13.43,30-30c0,16.57,13.43,30,30,30s30-13.43,30-30c0,16.57,13.43,30,30,30s30-13.43,30-30c0,16.57,13.43,30,30,30    c3.5,0,6.85-0.6,9.971-1.7l0.029,0.08V443.5H61z" style="fill:#FFFFFF;"/><polygon points="201,363.5 201,443.5 201,473.5 106,473.5 106,443.5 106,343.5 201,343.5   " style="fill:#FFFFFF;"/><circle cx="433.5" cy="68.5" r="30" style="fill:#FFFFFF;"/><path d="M88.5,63.5c11.05,0,20,8.95,20,20s-8.95,20-20,20c-11.04,0-20-8.95-20-20S77.46,63.5,88.5,63.5z" style="fill:#FFFFFF;"/><path d="M407.7,379.11c0.53,3.05,0.8,6.189,0.8,9.39c0,30.38-24.619,55-55,55c-30.369,0-55-24.62-55-55    s24.631-55,55-55c12.58,0,24.16,4.22,33.43,11.33l-11.27,15.02c-6.13-4.739-13.811-7.569-22.16-7.569    c-20,0-36.22,16.22-36.22,36.22s16.22,36.22,36.22,36.22c16.61,0,30.61-11.59,34.881-26.83H366.92V379.11H407.7z" style="fill:#9BC9FF;"/><path d="M461,243.5v25c0,13.07-8.359,24.19-20.029,28.3c-3.121,1.101-6.471,1.7-9.971,1.7    c-16.57,0-30-13.43-30-30v-25H461z" style="fill:#9BC9FF;"/><path d="M341,243.5v25c0,16.57-13.43,30-30,30s-30-13.43-30-30v-25H341z" style="fill:#9BC9FF;"/><path d="M221,243.5v25c0,16.57-13.43,30-30,30c-16.57,0-30-13.43-30-30v-25H221z" style="fill:#9BC9FF;"/><path d="M101,243.5v25c0,16.57-13.43,30-30,30c-3.49,0-6.84-0.6-9.95-1.7C49.37,292.71,41,281.58,41,268.5    v-25H101z" style="fill:#9BC9FF;"/><path d="M401,243.5v25c0,16.57-13.43,30-30,30s-30-13.43-30-30v-25H401z" style="fill:#FFFFFF;"/><path d="M161,243.5v25c0,16.57-13.43,30-30,30c-16.57,0-30-13.43-30-30v-25H161z" style="fill:#FFFFFF;"/><path d="M281,243.5v25c0,16.57-13.43,30-30,30c-16.57,0-30-13.43-30-30v-25H281z" style="fill:#FFFFFF;"/><polygon points="421,133.5 461,243.5 401,243.5 381,133.5   " style="fill:#9BC9FF;"/><polygon points="331,133.5 341,243.5 281,243.5 281,133.5   " style="fill:#9BC9FF;"/><polygon points="221,133.5 221,243.5 161,243.5 171,133.5   " style="fill:#9BC9FF;"/><polygon points="121,133.5 101,243.5 41,243.5 81,133.5   " style="fill:#9BC9FF;"/><polygon points="381,133.5 401,243.5 341,243.5 331,133.5   " style="fill:#FFFFFF;"/><rect height="110" style="fill:#FFFFFF;" width="60" x="221" y="133.5"/><polygon points="171,133.5 161,243.5 101,243.5 121,133.5   " style="fill:#FFFFFF;"/><circle cx="471" cy="151" r="7.5" style="fill:#1E81CE;"/><circle cx="356" cy="66" r="7.5" style="fill:#1E81CE;"/><circle cx="226" cy="51" r="7.5" style="fill:#1E81CE;"/><circle cx="156" cy="91" r="7.5" style="fill:#1E81CE;"/><circle cx="41" cy="171" r="7.5" style="fill:#1E81CE;"/><path d="M71,303.5c-3.984,0-7.893-0.668-11.618-1.986C45.403,296.618,36,283.35,36,268.5v-25    c0-2.761,2.239-5,5-5s5,2.239,5,5v25c0,10.606,6.712,20.083,16.703,23.581c2.667,0.943,5.453,1.419,8.297,1.419    c13.785,0,25-11.215,25-25c0-2.762,2.239-5,5-5s5,2.238,5,5C106,287.799,90.299,303.5,71,303.5z" style="fill:#1E81CE;"/><path d="M131,303.5c-19.299,0-35-15.701-35-35v-25c0-2.761,2.239-5,5-5s5,2.239,5,5v25    c0,13.785,11.215,25,25,25s25-11.215,25-25c0-2.762,2.239-5,5-5s5,2.238,5,5C166,287.799,150.299,303.5,131,303.5z" style="fill:#1E81CE;"/><path d="M191,303.5c-19.299,0-35-15.701-35-35v-25c0-2.761,2.239-5,5-5s5,2.239,5,5v25    c0,13.785,11.215,25,25,25s25-11.215,25-25c0-2.762,2.239-5,5-5s5,2.238,5,5C226,287.799,210.299,303.5,191,303.5z" style="fill:#1E81CE;"/><path d="M251,303.5c-19.299,0-35-15.701-35-35v-25c0-2.761,2.239-5,5-5s5,2.239,5,5v25    c0,13.785,11.215,25,25,25s25-11.215,25-25c0-2.762,2.238-5,5-5s5,2.238,5,5C286,287.799,270.299,303.5,251,303.5z" style="fill:#1E81CE;"/><path d="M311,303.5c-19.299,0-35-15.701-35-35v-25c0-2.761,2.238-5,5-5s5,2.239,5,5v25    c0,13.785,11.215,25,25,25s25-11.215,25-25c0-2.762,2.238-5,5-5s5,2.238,5,5C346,287.799,330.299,303.5,311,303.5z" style="fill:#1E81CE;"/><path d="M371,303.5c-19.299,0-35-15.701-35-35v-25c0-2.761,2.238-5,5-5s5,2.239,5,5v25    c0,13.785,11.215,25,25,25s25-11.215,25-25c0-2.762,2.238-5,5-5s5,2.238,5,5C406,287.799,390.299,303.5,371,303.5z" style="fill:#1E81CE;"/><path d="M431,303.5c-19.299,0-35-15.701-35-35v-25c0-2.761,2.238-5,5-5s5,2.239,5,5v25    c0,13.785,11.215,25,25,25c2.85,0,5.645-0.477,8.307-1.415C449.293,288.568,456,279.091,456,268.5v-25c0-2.761,2.238-5,5-5    s5,2.239,5,5v25c0,14.826-9.391,28.094-23.369,33.016C438.899,302.832,434.985,303.5,431,303.5z" style="fill:#1E81CE;"/><path d="M101,248.5H41c-1.631,0-3.16-0.795-4.095-2.131c-0.936-1.336-1.161-3.044-0.604-4.577l40-110    c0.718-1.976,2.596-3.292,4.699-3.292h40c2.761,0,5,2.239,5,5s-2.239,5-5,5H84.502l-36.363,100H101c2.761,0,5,2.239,5,5    S103.761,248.5,101,248.5z" style="fill:#1E81CE;"/><path d="M161,248.5h-60c-1.482,0-2.889-0.658-3.839-1.796c-0.95-1.138-1.346-2.639-1.081-4.098l20-110    c0.432-2.377,2.503-4.105,4.919-4.105h50c2.761,0,5,2.239,5,5s-2.239,5-5,5h-45.827l-18.182,100H161c2.761,0,5,2.239,5,5    S163.761,248.5,161,248.5z" style="fill:#1E81CE;"/><path d="M221,248.5h-60c-1.405,0-2.745-0.591-3.692-1.628c-0.948-1.037-1.415-2.425-1.288-3.824l10-110    c0.234-2.576,2.394-4.547,4.979-4.547h50c2.761,0,5,2.239,5,5s-2.239,5-5,5h-45.434l-9.091,100H221c2.761,0,5,2.239,5,5    S223.761,248.5,221,248.5z" style="fill:#1E81CE;"/><path d="M281,248.5h-60c-2.761,0-5-2.239-5-5v-110c0-2.761,2.239-5,5-5h60c2.762,0,5,2.239,5,5    s-2.238,5-5,5h-55v100h55c2.762,0,5,2.239,5,5S283.762,248.5,281,248.5z" style="fill:#1E81CE;"/><path d="M341,248.5h-60c-2.762,0-5-2.239-5-5v-110c0-2.761,2.238-5,5-5h50c2.762,0,5,2.239,5,5    s-2.238,5-5,5h-45v100h55c2.762,0,5,2.239,5,5S343.762,248.5,341,248.5z" style="fill:#1E81CE;"/><path d="M401,248.5h-60c-2.586,0-4.745-1.972-4.979-4.547l-10-110c-0.127-1.399,0.34-2.787,1.288-3.824    c0.947-1.038,2.287-1.628,3.691-1.628h50c2.762,0,5,2.239,5,5s-2.238,5-5,5h-44.525l9.092,100H401c2.762,0,5,2.239,5,5    S403.762,248.5,401,248.5z" style="fill:#1E81CE;"/><path d="M461,248.5h-60c-2.416,0-4.487-1.728-4.92-4.105l-20-110c-0.265-1.459,0.131-2.96,1.081-4.098    s2.356-1.796,3.839-1.796h40c2.103,0,3.98,1.315,4.699,3.292l40,110c0.557,1.533,0.332,3.241-0.604,4.577S462.631,248.5,461,248.5    z M405.173,238.5h48.688l-36.363-100h-30.507L405.173,238.5z" style="fill:#1E81CE;"/><path d="M106,478.5H61c-2.761,0-5-2.238-5-5V296.95c0-2.762,2.239-5,5-5s5,2.238,5,5V468.5h40    c2.761,0,5,2.238,5,5S108.761,478.5,106,478.5z" style="fill:#1E81CE;"/><path d="M441,478.5H201c-2.761,0-5-2.238-5-5s2.239-5,5-5h235V296.88c0-2.762,2.238-5,5-5s5,2.238,5,5    V473.5C446,476.262,443.762,478.5,441,478.5z" style="fill:#1E81CE;"/><path d="M353.5,448.5c-33.084,0-60-26.916-60-60s26.916-60,60-60c13.316,0,25.929,4.275,36.473,12.362    c2.176,1.669,2.602,4.776,0.957,6.969l-11.27,15.02c-0.805,1.07-2.004,1.774-3.33,1.954c-1.329,0.18-2.67-0.181-3.729-0.999    c-5.521-4.27-12.126-6.525-19.102-6.525c-17.215,0-31.22,14.005-31.22,31.22s14.005,31.22,31.22,31.22    c11.605,0,22.152-6.666,27.531-16.83H366.92c-2.761,0-5-2.238-5-5V379.11c0-2.762,2.239-5,5-5h40.78    c2.431,0,4.511,1.749,4.927,4.145c0.579,3.337,0.873,6.784,0.873,10.245C413.5,421.584,386.584,448.5,353.5,448.5z M353.5,338.5    c-27.57,0-50,22.43-50,50s22.43,50,50,50s50-22.43,50-50c0-1.472-0.063-2.938-0.189-4.39H371.92v8.779h16.461    c1.564,0,3.038,0.732,3.983,1.979c0.945,1.247,1.253,2.864,0.831,4.37c-5.029,17.947-21.352,30.481-39.695,30.481    c-22.729,0-41.22-18.491-41.22-41.22s18.491-41.22,41.22-41.22c7.502,0,14.68,1.977,21.022,5.755l5.295-7.057    C371.935,341.071,362.931,338.5,353.5,338.5z" style="fill:#1E81CE;"/><path d="M201,478.5h-95c-2.761,0-5-2.238-5-5v-130c0-2.762,2.239-5,5-5h95c2.761,0,5,2.238,5,5v130    C206,476.262,203.761,478.5,201,478.5z M111,468.5h85v-120h-85V468.5z" style="fill:#1E81CE;"/><path d="M106,448.5H61c-2.761,0-5-2.238-5-5s2.239-5,5-5h45c2.761,0,5,2.238,5,5S108.761,448.5,106,448.5z" style="fill:#1E81CE;"/><path d="M441,448.5H201c-2.761,0-5-2.238-5-5s2.239-5,5-5h240c2.762,0,5,2.238,5,5S443.762,448.5,441,448.5    z" style="fill:#1E81CE;"/><path d="M151.001,413.5c-1.368,0-2.73-0.559-3.718-1.655c-1.848-2.053-1.681-5.214,0.372-7.062l50-45    c2.052-1.847,5.213-1.681,7.061,0.372c1.848,2.053,1.681,5.214-0.372,7.062l-50,45C153.389,413.076,152.193,413.5,151.001,413.5z" style="fill:#1E81CE;"/><path d="M126.001,408.5c-1.368,0-2.731-0.559-3.718-1.655c-1.847-2.053-1.681-5.214,0.372-7.062l27.78-25    c2.052-1.847,5.214-1.68,7.062,0.372c1.847,2.053,1.681,5.214-0.372,7.062l-27.78,25C128.389,408.076,127.193,408.5,126.001,408.5    z" style="fill:#1E81CE;"/><path d="M433.5,103.5c-19.299,0-35-15.701-35-35s15.701-35,35-35s35,15.701,35,35    S452.799,103.5,433.5,103.5z M433.5,43.5c-13.785,0-25,11.215-25,25s11.215,25,25,25s25-11.215,25-25S447.285,43.5,433.5,43.5z" style="fill:#1E81CE;"/><path d="M88.5,108.5c-13.785,0-25-11.215-25-25s11.215-25,25-25s25,11.215,25,25S102.285,108.5,88.5,108.5z     M88.5,68.5c-8.271,0-15,6.729-15,15s6.729,15,15,15s15-6.729,15-15S96.771,68.5,88.5,68.5z" style="fill:#1E81CE;"/></g></g><g id="Layer_1"/></svg>